<svg version="1.2" xmlns="http://www.w3.org/2000/svg" viewBox="0 0 1800 800" width="1800" height="800">
	<title>2125-ai</title>
	<defs>
		<linearGradient id="g1" x1="29.3" y1="716.6" x2="29.3" y2="5.4" gradientUnits="userSpaceOnUse">
			<stop offset="0" stop-color="#168daa"/>
			<stop offset="1" stop-color="#224aa9"/>
		</linearGradient>
		<linearGradient id="g2" x1="372.4" y1="605.1" x2="372.4" y2="44.2" gradientUnits="userSpaceOnUse">
			<stop offset="0" stop-color="#168daa"/>
			<stop offset="1" stop-color="#224aa9"/>
		</linearGradient>
		<linearGradient id="g3" x1="-4" y1="802" x2="-4" y2="0" gradientUnits="userSpaceOnUse">
			<stop offset="0" stop-color="#000e7e"/>
			<stop offset="1" stop-color="#000020"/>
		</linearGradient>
		<radialGradient id="g4" cx="900" cy="731" r="638.4" gradientUnits="userSpaceOnUse">
			<stop offset="0" stop-color="#347cbd"/>
			<stop offset="1" stop-color="#292ea7"/>
		</radialGradient>
		<linearGradient id="g5" x1="1460" y1="802" x2="1460" y2="0" gradientUnits="userSpaceOnUse">
			<stop offset="0" stop-color="#262989"/>
			<stop offset="1" stop-color="#030554"/>
		</linearGradient>
		<linearGradient id="g6" x1="336" y1="802" x2="336" y2="0" gradientUnits="userSpaceOnUse">
			<stop offset="0" stop-color="#262989"/>
			<stop offset="1" stop-color="#030554"/>
		</linearGradient>
		<linearGradient id="g7" x1="372.4" y1="619.2" x2="372.4" y2="59.1" gradientUnits="userSpaceOnUse">
			<stop offset="0" stop-color="#000e7e"/>
			<stop offset="1" stop-color="#000020"/>
		</linearGradient>
		<radialGradient id="g8" cx="920" cy="3.3" r="521.8" gradientUnits="userSpaceOnUse">
			<stop offset="0" stop-color="#000054"/>
			<stop offset="1" stop-color="#000020"/>
		</radialGradient>
		<linearGradient id="g9" x1="1463.6" y1="658.3" x2="1800.4" y2="658.3" gradientUnits="userSpaceOnUse">
			<stop offset="0" stop-color="#000054"/>
			<stop offset="1" stop-color="#000020"/>
		</linearGradient>
		<linearGradient id="g10" x1="1586.2" y1="551" x2="1800.1" y2="551" gradientUnits="userSpaceOnUse">
			<stop offset="0" stop-color="#005e95"/>
			<stop offset="1" stop-color="#3b8bef"/>
		</linearGradient>
		<linearGradient id="g11" x1="1587.9" y1="549" x2="1800.1" y2="549" gradientUnits="userSpaceOnUse">
			<stop offset="0" stop-color="#000054"/>
			<stop offset="1" stop-color="#000020"/>
		</linearGradient>
		<linearGradient id="g12" x1="-0.4" y1="655.1" x2="332.4" y2="655.1" gradientUnits="userSpaceOnUse">
			<stop offset="0" stop-color="#000054"/>
			<stop offset="1" stop-color="#000020"/>
		</linearGradient>
		<linearGradient id="g13" x1="-0.7" y1="568.4" x2="226.3" y2="568.4" gradientUnits="userSpaceOnUse">
			<stop offset="0" stop-color="#3b8bef"/>
			<stop offset="1" stop-color="#002047"/>
		</linearGradient>
		<linearGradient id="g14" x1="-0.2" y1="567" x2="226.3" y2="567" gradientUnits="userSpaceOnUse">
			<stop offset="0" stop-color="#000054"/>
			<stop offset="1" stop-color="#000020"/>
		</linearGradient>
		<linearGradient id="g15" x1="79.7" y1="718.7" x2="79.7" y2="20.8" gradientUnits="userSpaceOnUse">
			<stop offset="0" stop-color="#3b8bef"/>
			<stop offset="1" stop-color="#002047"/>
		</linearGradient>
		<linearGradient id="g16" x1="185.4" y1="185.8" x2="-1.7" y2="185.8" gradientUnits="userSpaceOnUse">
			<stop offset="0" stop-color="#006db3"/>
			<stop offset="1" stop-color="#000020"/>
		</linearGradient>
		<linearGradient id="g17" x1="-0.4" y1="17.1" x2="229.1" y2="17.1" gradientUnits="userSpaceOnUse">
			<stop offset="0" stop-color="#000054"/>
			<stop offset="1" stop-color="#000020"/>
		</linearGradient>
		<linearGradient id="g18" x1="182" y1="-5" x2="320" y2="-5" gradientUnits="userSpaceOnUse">
			<stop offset="0" stop-color="#000054"/>
			<stop offset="1" stop-color="#000020"/>
		</linearGradient>
		<linearGradient id="g19" x1="86" y1="15.8" x2="1707.1" y2="15.8" gradientUnits="userSpaceOnUse">
			<stop offset="0" stop-color="#000054"/>
			<stop offset="1" stop-color="#000020"/>
		</linearGradient>
		<linearGradient id="g20" x1="1082.3" y1="596.2" x2="1406.5" y2="596.2" gradientUnits="userSpaceOnUse">
			<stop offset="0" stop-color="#006db3"/>
			<stop offset="1" stop-color="#000020"/>
		</linearGradient>
		<linearGradient id="g21" x1="1490.4" y1="486.9" x2="1490.4" y2="237.1" gradientUnits="userSpaceOnUse">
			<stop offset="0" stop-color="#000020"/>
			<stop offset="1" stop-color="#006db3"/>
		</linearGradient>
		<linearGradient id="g22" x1="430.7" y1="596.2" x2="569.3" y2="596.2" gradientUnits="userSpaceOnUse">
			<stop offset="0" stop-color="#000020"/>
			<stop offset="1" stop-color="#006db3"/>
		</linearGradient>
		<linearGradient id="g23" x1="269.7" y1="496" x2="269.7" y2="189.8" gradientUnits="userSpaceOnUse">
			<stop offset="0" stop-color="#000020"/>
			<stop offset="1" stop-color="#006db3"/>
		</linearGradient>
		<linearGradient id="g24" x1="155.6" y1="453.3" x2="155.6" y2="301.7" gradientUnits="userSpaceOnUse">
			<stop offset="0" stop-color="#347cbd"/>
			<stop offset="1" stop-color="#292ea7"/>
		</linearGradient>
		<linearGradient id="g25" x1="146" y1="453.3" x2="146" y2="301.7" gradientUnits="userSpaceOnUse">
			<stop offset="0" stop-color="#000e7e"/>
			<stop offset="1" stop-color="#000020"/>
		</linearGradient>
		<linearGradient id="g26" x1="162" y1="447.5" x2="162" y2="366" gradientUnits="userSpaceOnUse">
			<stop offset="0" stop-color="#000e7e"/>
			<stop offset="1" stop-color="#000020"/>
		</linearGradient>
		<linearGradient id="g27" x1="165" y1="390.8" x2="165" y2="376.4" gradientUnits="userSpaceOnUse">
			<stop offset="0" stop-color="#005ca1"/>
			<stop offset="1" stop-color="#007a9f"/>
		</linearGradient>
		<linearGradient id="g28" x1="179.4" y1="390.8" x2="179.4" y2="376.4" gradientUnits="userSpaceOnUse">
			<stop offset="0" stop-color="#005ca1"/>
			<stop offset="1" stop-color="#007a9f"/>
		</linearGradient>
		<linearGradient id="g29" x1="191.6" y1="389.8" x2="191.6" y2="375.4" gradientUnits="userSpaceOnUse">
			<stop offset="0" stop-color="#005ca1"/>
			<stop offset="1" stop-color="#007a9f"/>
		</linearGradient>
		<linearGradient id="g30" x1="165" y1="410.1" x2="165" y2="395.8" gradientUnits="userSpaceOnUse">
			<stop offset="0" stop-color="#005ca1"/>
			<stop offset="1" stop-color="#007a9f"/>
		</linearGradient>
		<linearGradient id="g31" x1="179.4" y1="410.1" x2="179.4" y2="395.8" gradientUnits="userSpaceOnUse">
			<stop offset="0" stop-color="#005ca1"/>
			<stop offset="1" stop-color="#007a9f"/>
		</linearGradient>
		<linearGradient id="g32" x1="191.6" y1="409.2" x2="191.6" y2="394.8" gradientUnits="userSpaceOnUse">
			<stop offset="0" stop-color="#005ca1"/>
			<stop offset="1" stop-color="#007a9f"/>
		</linearGradient>
		<linearGradient id="g33" x1="165" y1="431.5" x2="165" y2="417.1" gradientUnits="userSpaceOnUse">
			<stop offset="0" stop-color="#005ca1"/>
			<stop offset="1" stop-color="#007a9f"/>
		</linearGradient>
		<linearGradient id="g34" x1="179.4" y1="431.5" x2="179.4" y2="417.1" gradientUnits="userSpaceOnUse">
			<stop offset="0" stop-color="#005ca1"/>
			<stop offset="1" stop-color="#007a9f"/>
		</linearGradient>
		<linearGradient id="g35" x1="191.6" y1="430.5" x2="191.6" y2="416.2" gradientUnits="userSpaceOnUse">
			<stop offset="0" stop-color="#005ca1"/>
			<stop offset="1" stop-color="#007a9f"/>
		</linearGradient>
		<linearGradient id="g36" x1="162" y1="362" x2="162" y2="306.5" gradientUnits="userSpaceOnUse">
			<stop offset="0" stop-color="#000e7e"/>
			<stop offset="1" stop-color="#000020"/>
		</linearGradient>
		<linearGradient id="g37" x1="1041.2" y1="246.5" x2="1204.7" y2="246.5" gradientUnits="userSpaceOnUse">
			<stop offset="0" stop-color="#006db3"/>
			<stop offset="1" stop-color="#000020"/>
		</linearGradient>
		<linearGradient id="g38" x1="557.3" y1="202.4" x2="812.3" y2="202.4" gradientUnits="userSpaceOnUse">
			<stop offset="0" stop-color="#006db3"/>
			<stop offset="1" stop-color="#000020"/>
		</linearGradient>
		<linearGradient id="g39" x1="-6.4" y1="786.5" x2="-6.4" y2="701.3" gradientUnits="userSpaceOnUse">
			<stop offset="0" stop-color="#3b8bef"/>
			<stop offset="1" stop-color="#005e95"/>
		</linearGradient>
		<linearGradient id="g40" x1="-0.8" y1="695.5" x2="1800.9" y2="695.5" gradientUnits="userSpaceOnUse">
			<stop offset="0" stop-color="#000054"/>
			<stop offset="1" stop-color="#000020"/>
		</linearGradient>
		<linearGradient id="g41" x1="1589.7" y1="151.4" x2="1804.3" y2="151.4" gradientUnits="userSpaceOnUse">
			<stop offset="0" stop-color="#006db3"/>
			<stop offset="1" stop-color="#000020"/>
		</linearGradient>
		<linearGradient id="g42" x1="256.6" y1="257.5" x2="1580" y2="257.5" gradientUnits="userSpaceOnUse">
			<stop offset="0" stop-color="#005ca1"/>
			<stop offset="1" stop-color="#007a9f"/>
		</linearGradient>
		<linearGradient id="g43" x1="1552.4" y1="292.5" x2="1558.2" y2="292.5" gradientUnits="userSpaceOnUse">
			<stop offset="0" stop-color="#005ca1"/>
			<stop offset="1" stop-color="#007a9f"/>
		</linearGradient>
		<linearGradient id="g44" x1="876.5" y1="46" x2="1551.6" y2="46" gradientUnits="userSpaceOnUse">
			<stop offset="0" stop-color="#005ca1"/>
			<stop offset="1" stop-color="#007a9f"/>
		</linearGradient>
		<linearGradient id="g45" x1="241.7" y1="35" x2="871.6" y2="35" gradientUnits="userSpaceOnUse">
			<stop offset="0" stop-color="#005ca1"/>
			<stop offset="1" stop-color="#007a9f"/>
		</linearGradient>
		<linearGradient id="g46" x1="227.1" y1="205.7" x2="248" y2="205.7" gradientUnits="userSpaceOnUse">
			<stop offset="0" stop-color="#005ca1"/>
			<stop offset="1" stop-color="#007a9f"/>
		</linearGradient>
		<linearGradient id="g47" x1="238" y1="280.7" x2="256" y2="280.7" gradientUnits="userSpaceOnUse">
			<stop offset="0" stop-color="#005ca1"/>
			<stop offset="1" stop-color="#007a9f"/>
		</linearGradient>
		<linearGradient id="g48" x1="900.9" y1="45.5" x2="918.9" y2="45.5" gradientUnits="userSpaceOnUse">
			<stop offset="0" stop-color="#005ca1"/>
			<stop offset="1" stop-color="#007a9f"/>
		</linearGradient>
		<linearGradient id="g49" x1="1549" y1="364.7" x2="1567" y2="364.7" gradientUnits="userSpaceOnUse">
			<stop offset="0" stop-color="#005ca1"/>
			<stop offset="1" stop-color="#007a9f"/>
		</linearGradient>
		<linearGradient id="g50" x1="719.2" y1="631" x2="737.2" y2="631" gradientUnits="userSpaceOnUse">
			<stop offset="0" stop-color="#005ca1"/>
			<stop offset="1" stop-color="#007a9f"/>
		</linearGradient>
		<linearGradient id="g51" x1="592.5" y1="639" x2="721.2" y2="639" gradientUnits="userSpaceOnUse">
			<stop offset="0" stop-color="#005ca1"/>
			<stop offset="1" stop-color="#007a9f"/>
		</linearGradient>
	</defs>
	<style>
		.s0 { fill: url(#g1) } 
		.s1 { fill: url(#g2) } 
		.s2 { mix-blend-mode: soft-light;fill: #b1ffff } 
		.s3 { fill: url(#g3) } 
		.s4 { fill: url(#g4) } 
		.s5 { fill: url(#g5) } 
		.s6 { fill: url(#g6) } 
		.s7 { fill: url(#g7) } 
		.s8 { fill: url(#g8) } 
		.s9 { fill: url(#g9) } 
		.s10 { fill: url(#g10) } 
		.s11 { fill: url(#g11) } 
		.s12 { fill: url(#g12) } 
		.s13 { fill: url(#g13) } 
		.s14 { fill: url(#g14) } 
		.s15 { fill: url(#g15) } 
		.s16 { opacity: .2;mix-blend-mode: screen;fill: url(#g16) } 
		.s17 { fill: url(#g17) } 
		.s18 { fill: url(#g18) } 
		.s19 { fill: url(#g19) } 
		.s20 { opacity: .5;mix-blend-mode: multiply;fill: #610051 } 
		.s21 { mix-blend-mode: screen;fill: url(#g20) } 
		.s22 { mix-blend-mode: screen;fill: url(#g21) } 
		.s23 { opacity: .3;mix-blend-mode: multiply;fill: #610051 } 
		.s24 { opacity: .8;mix-blend-mode: multiply;fill: #610051 } 
		.s25 { mix-blend-mode: screen;fill: url(#g22) } 
		.s26 { mix-blend-mode: screen;fill: url(#g23) } 
		.s27 { fill: url(#g24) } 
		.s28 { fill: url(#g25) } 
		.s29 { fill: url(#g26) } 
		.s30 { fill: url(#g27) } 
		.s31 { fill: url(#g28) } 
		.s32 { fill: url(#g29) } 
		.s33 { fill: url(#g30) } 
		.s34 { fill: url(#g31) } 
		.s35 { fill: url(#g32) } 
		.s36 { fill: url(#g33) } 
		.s37 { fill: url(#g34) } 
		.s38 { fill: url(#g35) } 
		.s39 { fill: url(#g36) } 
		.s40 { mix-blend-mode: screen;fill: url(#g37) } 
		.s41 { mix-blend-mode: screen;fill: url(#g38) } 
		.s42 { fill: url(#g39) } 
		.s43 { fill: url(#g40) } 
		.s44 { opacity: .2;mix-blend-mode: screen;fill: url(#g41) } 
		.s45 { fill: url(#g42) } 
		.s46 { fill: url(#g43) } 
		.s47 { fill: url(#g44) } 
		.s48 { fill: url(#g45) } 
		.s49 { fill: url(#g46) } 
		.s50 { fill: url(#g47) } 
		.s51 { fill: url(#g48) } 
		.s52 { fill: url(#g49) } 
		.s53 { fill: url(#g50) } 
		.s54 { fill: url(#g51) } 
	</style>
	<g id="space">
		<g id="&lt;Clip Group&gt;">
			<g id="&lt;Group&gt;">
				<g id="&lt;Group&gt;">
					<path id="&lt;Compound Path&gt;" fill-rule="evenodd" class="s0" d="m1768.7 5.4v711.2h-1735.4v-711.2zm-261.3 481.5l-16.6-311.8c-0.4-6.3-2.3-12.5-5.7-17.9l-42-67.2q-2.2-4-4.4-7.1l-2.2-3.4c-4.2-6.8-10.4-11.9-17.5-14.8-4.5-1.9-9.4-2.9-14.4-2.9h-416.5c-4 0-7.7 1.8-10.3 4.9l-30.8 37.9c-3.2 4-8 6.2-13.1 6.2l-53.9-0.6c-5 0-9.7-2.3-12.9-6.2l-30.1-37.3c-2.5-3.1-6.3-4.9-10.3-4.9h-431.5c-5.3 0-10.3 1.1-15 3.1-6.2 2.7-11.6 7-15.6 12.6l-8.7 12.2q-0.1 0-0.1 0l-37.2 52.1c-4.3 6-6.7 13-7 20.3l-15.3 357c-0.5 13.3 6 25.9 17.2 33.2l65 41.9c6.1 3.9 13.2 6 20.4 6h990.7c9.4 0 18.5-3.5 25.4-9.9l80.3-73.7c8.3-7.6 12.7-18.5 12.1-29.7z"/>
					<path id="&lt;Path&gt;" class="s1" d="m883.2 605.1l-506.8-559.2 38.1-1.3 481.3 527.2c4.3 4.8 11.9 4.7 16.1-0.1l466.1-526.7 46-0.8-502.8 560.9z"/>
					<path id="&lt;Compound Path&gt;" fill-rule="evenodd" class="s2" d="m1797.7-2.3v802h-1792.2v-802zm-364 607.7l80.1-73.8c9.5-8.8 14.6-21.4 13.9-34.3l-17-320.2c-0.4-7.3-2.6-14.4-6.5-20.7l-48.3-77.5c-7.9-12.7-21.8-20.4-36.7-20.4h-435.6c-4 0-7.8 1.8-10.3 5l-26.3 33.8c-3.1 4-7.9 6.4-13 6.4h-49.9c-5.1 0-9.9-2.4-13-6.5l-25.4-33.6c-2.4-3.2-6.3-5.1-10.3-5.1h-455.2c-13.2 0-25.7 6.1-33.9 16.5l-49.9 63.7c-5.7 7.3-9 16.3-9.2 25.6l-10.3 366.3c-0.5 15.2 7.1 29.5 19.8 37.7l64.2 41.6c7 4.6 15.2 7 23.5 7h1020.1c10.8 0 21.2-4.1 29.2-11.5z"/>
					<path id="&lt;Path&gt;" class="s2" d="m861.7 616.2l5.3 0.1c5.5 0 8.4-6.5 4.7-10.6l-495.3-547.9 38.1-1.3 481.3 527.2c4.3 4.8 11.9 4.8 16.1-0.1l466.1-526.7 46-0.8-492.6 549.6c-3.7 4.1-0.8 10.5 4.7 10.5h8.4z"/>
					<path id="&lt;Compound Path&gt;" fill-rule="evenodd" class="s3" d="m1800 0v802h-1800v-802zm-365.5 607.8l80.4-73.9c9.6-8.8 14.7-21.3 14-34.3l-17.1-320.1c-0.4-7.4-2.6-14.5-6.5-20.8l-48.5-77.5c-8-12.7-21.9-20.4-36.9-20.4h-437.5c-4 0-7.8 1.8-10.3 5l-26.5 33.9c-3.1 4-7.9 6.3-13 6.3h-50.1c-5.1 0-10-2.4-13.1-6.5l-25.5-33.5c-2.4-3.3-6.3-5.2-10.4-5.2h-457.1c-13.3 0-25.9 6.1-34.1 16.6l-50.1 63.6c-5.7 7.3-9 16.3-9.3 25.6l-10.3 366.3c-0.4 15.2 7.1 29.5 19.9 37.8l64.5 41.6c7 4.5 15.2 6.9 23.6 6.9h1024.5c10.9 0 21.3-4.1 29.4-11.4z"/>
					<path id="&lt;Path&gt;" class="s4" d="m1464 663.2l336 138.8h-1800l332-142z"/>
					<path id="&lt;Path&gt;" class="s5" d="m1464 663.2l124-109.2-14-413-85.6-134.4 169.6-6.6h142v802z"/>
					<path id="&lt;Path&gt;" class="s6" d="m0 802v-802h182l138 6.6-91.3 112.7-2.6 452.7 105.9 88z"/>
					<path id="&lt;Path&gt;" class="s7" d="m861.7 619.2h5.3c5.5 0.1 8.4-6.4 4.7-10.5l-495.3-547.9 38.1-1.3 481.3 527.2c4.3 4.8 11.9 4.7 16.1-0.1l466.1-526.7 46-0.8-492.6 549.6c-3.7 4-0.8 10.5 4.7 10.5h8.4z"/>
					<path id="&lt;Path&gt;" class="s8" d="m1488.4 6.6h-1168.4l-138-6.6h1476z"/>
				</g>
				<g id="&lt;Group&gt;">
					<path id="&lt;Path&gt;" class="s9" d="m1799.6 802.9l-336-138.8 0.8-1.8 336 138.8z"/>
				</g>
				<g id="&lt;Group&gt;">
					<path id="&lt;Path&gt;" class="s10" d="m1799.9 569.1l-213.7-12.1 0.2-2 213.7 12.1z"/>
				</g>
				<g id="&lt;Group&gt;">
					<path id="&lt;Path&gt;" class="s11" d="m1799.9 567l-212-12 0.2-2 212 12z"/>
				</g>
				<g id="&lt;Group&gt;">
					<path id="&lt;Path&gt;" class="s12" d="m0.4 802.9l-0.8-1.8 332-142 0.8 1.8z"/>
				</g>
				<g id="&lt;Group&gt;">
					<path id="&lt;Path&gt;" class="s13" d="m-0.4 615.8l-0.3-1.9 226.6-41.5 0.4 1.9z"/>
				</g>
				<g id="&lt;Group&gt;">
					<path id="&lt;Path&gt;" class="s14" d="m0.2 614l-0.4-2 226.1-41 0.4 2z"/>
				</g>
				<g id="&lt;Group&gt;">
					<path id="&lt;Compound Path&gt;" fill-rule="evenodd" class="s15" d="m196 718.7l-0.3-0.3-112-117.3v-541.8l140.4-38.5h1383.1l82.7 95.3v0.4l19.1 445.6-0.3 0.3-139 145.7h-0.4zm-110.2-118.4l111 116.4 1372.1-10.6 138.1-144.8-19.1-444.4-81.6-94.1h-1382l-138.5 38z"/>
				</g>
				<path id="&lt;Path&gt;" class="s16" d="m185.4 579.4l-185.4 33.6-1.7-243.3 165.5-179.9z"/>
				<g id="&lt;Group&gt;">
					<path id="&lt;Path&gt;" class="s17" d="m228.3 120.3l-228.7-97.4 0.8-1.8 228.7 97.3z"/>
				</g>
				<g id="&lt;Group&gt;">
					<path id="&lt;Path&gt;" class="s18" d="m320 7.6l-138-6.6v-2l138 6.6z"/>
				</g>
				<g id="&lt;Group&gt;">
					<path id="&lt;Compound Path&gt;" fill-rule="evenodd" class="s19" d="m197.9 717.7l-0.3-0.4-111.6-116.9v-542.1l140-38.5h1379.5l82.5 95.3v0.4l19.1 445.6-0.3 0.3-138.7 145.6h-0.4zm-109.9-118l110.8 116 1368.5-10.6 137.8-144.7-19.1-444.4-81.4-94.1h-1378.5l-138.1 38z"/>
				</g>
				<path id="&lt;Path&gt;" class="s20" d="m199.1 444.7l-5.8 14.6-57.3 6.7 3.3-154.7 10.7-6.6z"/>
				<path id="&lt;Path&gt;" class="s21" d="m1406.5 620l-319.8-0.8-4.4-19h307.3l15.5 19z"/>
				<path id="&lt;Path&gt;" class="s22" d="m1494.4 242.5l20.5-5.4 13.3 249.8h-20.8z"/>
				<path id="&lt;Path&gt;" class="s23" d="m1528.8 505.1l-23.4-4 2-14.2h20.8c0 0 0.6 15.4 0.6 18.2z"/>
				<path id="&lt;Path&gt;" class="s24" d="m1456.8 81.2l-13.7 8.8c-1.9-3-3.1-4.9-4.4-7.1l-2.2-3.4c-4.2-6.8-10.4-11.9-17.5-14.8l3.4-3.8c23.6 1.3 34.4 20.3 34.4 20.3z"/>
				<path id="&lt;Path&gt;" class="s25" d="m430.7 620l11.3-19.8h127.3l-10.5 19z"/>
				<path id="&lt;Path&gt;" class="s26" d="m296.3 493.3l-22.6 2.7 8.6-306.2h25.9z"/>
				<path id="&lt;Path&gt;" class="s24" d="m380.2 64.9c-6.2 2.7-11.6 7-15.6 12.6l-8.7 12.2q-0.1 0-0.1 0l-19.4-4.9c17.4-27.1 40-24 40-24z"/>
				<path id="&lt;Path&gt;" class="s24" d="m1378 59.9l-57.5 65h-12.8l55.4-63.1z"/>
				<g id="&lt;Group&gt;">
					<path id="&lt;Path&gt;" class="s27" d="m159.6 453.3l0.7-151.6 51.7 5.3v142.5z"/>
					<path id="&lt;Path&gt;" class="s28" d="m159.6 453.3l-9.6-4.3v-144.3l10.3-3z"/>
					<path id="&lt;Path&gt;" class="s29" d="m166 447.5v-81.5h41.8v78z"/>
					<path id="&lt;Path&gt;" class="s30" d="m176 383.6c0 3.9-1.6 7.1-3.5 7.1-1.9 0-3.5-3.2-3.5-7.1 0-4 1.6-7.2 3.5-7.2 1.9 0 3.5 3.2 3.5 7.2z"/>
					<path id="&lt;Path&gt;" class="s31" d="m190.4 383.6c0 3.9-1.6 7.1-3.5 7.1-2 0-3.5-3.2-3.5-7.1 0-4 1.5-7.2 3.5-7.2 1.9 0 3.5 3.2 3.5 7.2z"/>
					<path id="&lt;Path&gt;" class="s32" d="m202.6 382.6c0 3.9-1.6 7.2-3.5 7.2-1.9 0-3.5-3.3-3.5-7.2 0-4 1.6-7.2 3.5-7.2 1.9 0 3.5 3.2 3.5 7.2z"/>
					<path id="&lt;Path&gt;" class="s33" d="m176 403c0 3.9-1.6 7.1-3.5 7.1-1.9 0-3.5-3.2-3.5-7.1 0-4 1.6-7.2 3.5-7.2 1.9 0 3.5 3.2 3.5 7.2z"/>
					<path id="&lt;Path&gt;" class="s34" d="m190.4 403c0 3.9-1.6 7.1-3.5 7.1-2 0-3.5-3.2-3.5-7.1 0-4 1.5-7.2 3.5-7.2 1.9 0 3.5 3.2 3.5 7.2z"/>
					<path id="&lt;Path&gt;" class="s35" d="m202.6 402c0 3.9-1.6 7.2-3.5 7.2-1.9 0-3.5-3.3-3.5-7.2 0-4 1.6-7.2 3.5-7.2 1.9 0 3.5 3.2 3.5 7.2z"/>
					<path id="&lt;Path&gt;" class="s36" d="m176 424.3c0 4-1.6 7.2-3.5 7.2-1.9 0-3.5-3.2-3.5-7.2 0-3.9 1.6-7.2 3.5-7.2 1.9 0 3.5 3.3 3.5 7.2z"/>
					<path id="&lt;Path&gt;" class="s37" d="m190.4 424.3c0 4-1.6 7.2-3.5 7.2-2 0-3.5-3.2-3.5-7.2 0-3.9 1.5-7.2 3.5-7.2 1.9 0 3.5 3.3 3.5 7.2z"/>
					<path id="&lt;Path&gt;" class="s38" d="m202.6 423.3c0 4-1.6 7.2-3.5 7.2-1.9 0-3.5-3.2-3.5-7.2 0-3.9 1.6-7.1 3.5-7.1 1.9 0 3.5 3.2 3.5 7.1z"/>
					<path id="&lt;Path&gt;" class="s39" d="m166 306.5l41.8 3.3v52.2h-41.8z"/>
				</g>
				<path id="&lt;Path&gt;" class="s24" d="m414.5 59.5l14.8 1.3 39.7 43.5-22-9.2z"/>
				<path id="&lt;Path&gt;" class="s23" d="m273.7 541l25-7.1 5.8 10.2-22.8 16.6c-10.8-9.9-8-19.7-8-19.7z"/>
				<path id="&lt;Path&gt;" class="s2" d="m394.1 599.9l-15.4 19.3c-6.4-0.1-14.5-3.2-14.5-3.2l19.5-19c1.9 2.4 10.4 2.9 10.4 2.9z"/>
				<path id="&lt;Path&gt;" class="s2" d="m1406.5 596.2l22.5 15.8c0 0-10.9 6.2-17.4 6.7l-16-19z"/>
				<path id="&lt;Path&gt;" class="s40" d="m1196.1 250.5l8.6 5.2-154 173.4-9.5-3.5z"/>
				<path id="&lt;Path&gt;" class="s41" d="m557.3 215.9l4.9-9.5 250.1 274.6-7.6 6z"/>
				<g id="&lt;Group&gt;">
					<path id="&lt;Path&gt;" class="s42" d="m1757.9 786.5h-1717.2l-43.1-53.1 1.5-1.3 42.5 52.4h1715.1l44.1-83.2 1.8 0.9z"/>
				</g>
				<g id="&lt;Group&gt;">
					<path id="&lt;Path&gt;" class="s43" d="m1756.4 784.7h-1714.1l-0.3-0.4-42.8-52.7 1.6-1.2 42.4 52.3h1711.9l44-83.2 1.8 1z"/>
				</g>
				<path id="&lt;Path&gt;" class="s20" d="m1800 0v90l-211 47.6 16.1 417.4-141.1 108.2 124-109.2-13.9-408.9-117.3-116.6-1108.8 15.7-119.3 89.8-2.6 438 105.9 88 1132 3.2 31.9 13.2-485.8-1.2 578.9 130.7-131-4.4-561.4-125.2h-7.7l-425.5 123.7-94.7 0.4 434.8-123.3-522.6 4.8-95.5-102.5-26.2-489.7-159.2-83.1v-6.6z"/>
				<path id="&lt;Path&gt;" class="s44" d="m1589.7 155.4l214.6 187.5-4.3 223.1-194.9-11z"/>
				<g id="&lt;Group&gt;">
					<g id="&lt;Group&gt;">
						<path id="&lt;Path&gt;" class="s45" d="m549.5 645q0 0 0 0l-195.8-4.7q-0.3 0-0.5-0.2l-96.3-70.3c-0.4-0.3-0.5-0.9-0.2-1.4 0.3-0.4 0.9-0.5 1.4-0.2l96 70.1 195.1 4.7 22.4-13.9q0.3-0.1 0.5-0.1h181.8q0.3 0 0.6 0.2l17.7 13.8h678.9l110.2-95.5v-89l-23.6-20.4c-0.2-0.2-0.3-0.4-0.3-0.7l-7.1-143.4q0-0.3 0.2-0.5l19.3-31.5c0.2-0.3 0.5-0.5 0.8-0.5 0.3 0 0.6 0.1 0.8 0.4l23 27.7q0.2 0.3 0.3 0.6l5.3 138.9q0 0.3-0.1 0.5l-11.7 18.2c-0.3 0.5-0.9 0.6-1.4 0.3-0.5-0.3-0.6-0.9-0.3-1.4l11.5-17.9-5.3-138.1-21.9-26.5-18.5 30.1 7.1 142.6 23.6 20.3c0.2 0.2 0.3 0.5 0.3 0.8v90c0 0.3-0.1 0.6-0.3 0.8l-110.9 96q-0.3 0.2-0.6 0.2h-679.6q-0.4 0-0.7-0.2l-17.7-13.8h-181.1l-22.4 13.9q-0.2 0.1-0.5 0.1z"/>
					</g>
					<g id="&lt;Group&gt;">
						<path id="&lt;Path&gt;" class="s46" d="m1557.2 361.7c-0.5 0-1-0.4-1-1l-3.9-63.1c0-0.6 0.4-1 1-1.1 0.5 0 1 0.4 1 1l3.9 63.1c0 0.6-0.4 1.1-0.9 1.1q-0.1 0-0.1 0z"/>
					</g>
					<g id="&lt;Group&gt;">
						<path id="&lt;Path&gt;" class="s47" d="m1550.7 245.5c-0.6 0-1-0.4-1-0.9l-5.3-79.6-80.9-113h-499.6l-22.6 30.5c-0.2 0.2-0.5 0.4-0.8 0.4h-63c-0.6 0-1-0.5-1-1 0-0.6 0.4-1 1-1h62.5l22.6-30.5c0.2-0.3 0.5-0.4 0.8-0.4h500.6c0.3 0 0.6 0.2 0.8 0.4l81.3 113.7q0.2 0.2 0.2 0.5l5.4 79.8c0 0.6-0.4 1.1-1 1.1q0 0 0 0z"/>
					</g>
					<g id="&lt;Group&gt;">
						<path id="&lt;Path&gt;" class="s48" d="m242.7 543c-0.6 0-1-0.4-1-1v-211c0-0.3 0.1-0.6 0.3-0.8l20.3-18v-82.5l-12.1-13.7q-0.2-0.3-0.2-0.7v-84.6q0-0.4 0.3-0.7l81-90.7c0.1-0.2 0.4-0.3 0.7-0.3h512c0.3 0 0.6 0.1 0.8 0.3l26.6 30.7c0.4 0.4 0.3 1.1-0.1 1.4-0.4 0.4-1 0.3-1.4-0.1l-26.4-30.3h-511.1l-80.4 90v84l12.1 13.7q0.2 0.3 0.2 0.6v83.4c0 0.3-0.1 0.5-0.3 0.7l-20.3 18.1v210.5c0 0.6-0.5 1-1 1z"/>
					</g>
					<g id="&lt;Group&gt;">
						<path id="&lt;Path&gt;" class="s49" d="m247 287.7c-0.6 0-1-0.5-1-1v-57.9l-18.7-17.4c-0.4-0.4-0.4-1 0-1.4 0.3-0.4 1-0.4 1.4-0.1l19 17.7c0.2 0.2 0.3 0.5 0.3 0.7v58.4c0 0.5-0.4 1-1 1z"/>
					</g>
					<g id="&lt;Group&gt;">
						<path id="&lt;Compound Path&gt;" fill-rule="evenodd" class="s50" d="m247 302.7c-5 0-9-4.1-9-9 0-5 4-9 9-9 5 0 9 4 9 9 0 4.9-4 9-9 9zm0-16c-3.9 0-7 3.1-7 7 0 3.8 3.1 7 7 7 3.9 0 7-3.2 7-7 0-3.9-3.1-7-7-7z"/>
					</g>
					<g id="&lt;Group&gt;">
						<path id="&lt;Compound Path&gt;" fill-rule="evenodd" class="s51" d="m909.9 67.5c-4.9 0-9-4.1-9-9 0-5 4.1-9 9-9 5 0 9 4 9 9 0 4.9-4 9-9 9zm0-16c-3.8 0-7 3.1-7 7 0 3.8 3.2 7 7 7 3.9 0 7-3.2 7-7 0-3.9-3.1-7-7-7z"/>
					</g>
					<g id="&lt;Group&gt;">
						<path id="&lt;Compound Path&gt;" fill-rule="evenodd" class="s52" d="m1558 386.7c-4.9 0-9-4-9-9 0-4.9 4.1-9 9-9 5 0 9 4.1 9 9 0 5-4 9-9 9zm0-16c-3.8 0-7 3.2-7 7 0 3.9 3.2 7 7 7 3.9 0 7-3.1 7-7 0-3.8-3.1-7-7-7z"/>
					</g>
					<g id="&lt;Group&gt;">
						<path id="&lt;Compound Path&gt;" fill-rule="evenodd" class="s53" d="m728.2 653c-4.9 0-9-4-9-9 0-5 4.1-9 9-9 5 0 9 4 9 9 0 5-4 9-9 9zm0-16c-3.8 0-7 3.1-7 7 0 3.9 3.2 7 7 7 3.9 0 7-3.1 7-7 0-3.9-3.1-7-7-7z"/>
					</g>
					<g id="&lt;Group&gt;">
						<path id="&lt;Path&gt;" class="s54" d="m720.2 645h-126.7c-0.5 0-1-0.4-1-1 0-0.6 0.5-1 1-1h126.7c0.6 0 1 0.4 1 1 0 0.6-0.4 1-1 1z"/>
					</g>
				</g>
			</g>
		</g>
	</g>
</svg>